# Exported from Wings 3D 0.98.32a
mtllib peg.mtl
o cylinder1
#16 vertices, 23 faces
v 6.1299100e-2 0.50000000 -1.2193100e-2
v 5.1966800e-2 0.50000000 3.4723100e-2
v 1.2193100e-2 0.50000000 6.1299100e-2
v -3.4723100e-2 0.50000000 5.1966800e-2
v -6.1299100e-2 0.50000000 1.2193100e-2
v -5.1966800e-2 0.50000000 -3.4723100e-2
v -1.2193100e-2 0.50000000 -6.1299100e-2
v 3.4723100e-2 0.50000000 -5.1966800e-2
v 5.7742500e-2 0.0000000e+0 2.3917700e-2
v 2.3917700e-2 0.0000000e+0 5.7742500e-2
v -2.3917700e-2 0.0000000e+0 5.7742500e-2
v -5.7742500e-2 0.0000000e+0 2.3917700e-2
v -5.7742500e-2 0.0000000e+0 -2.3917700e-2
v -2.3917700e-2 0.0000000e+0 -5.7742500e-2
v 2.3917700e-2 0.0000000e+0 -5.7742500e-2
v 5.7742500e-2 0.0000000e+0 -2.3917700e-2
vt 0.0000000e+0 0.40054378
vt 2.9009723e-2 0.30490922
vt 2.9009723e-2 0.69509078
vt 7.6120171e-2 0.78322792
vt 0.21677208 7.6120171e-2
vt 0.30490922 2.9009723e-2
vt 0.30490922 0.97099028
vt 0.40054378 1.00000000
vt 0.49590200 0.78064600
vt 0.53305400 0.59387000
vt 0.59945622 0.0000000e+0
vt 0.60170200 0.93898800
vt 0.69139500 0.48807000
vt 0.69509078 2.9009723e-2
vt 0.69509078 0.97099028
vt 0.78322792 0.92387983
vt 0.78847800 0.97614000
vt 0.87817100 0.52522200
vt 0.92387983 0.21677208
vt 0.94681900 0.87034000
vt 0.97099028 0.30490922
vt 0.97099028 0.69509078
vt 0.98397200 0.68356400
vt 1.00000000 0.59945622
vn 0.68043459 0.72759988 -8.7219159e-2
vn 0.54281340 0.72759963 0.41946679
vn 0.11980714 0.33472792 0.93466757
vn -0.49906644 0.57779710 0.64581979
vn -0.68043459 0.72759988 8.7219159e-2
vn -0.54281340 0.72759963 -0.41946679
vn -0.11980714 0.33472792 -0.93466757
vn 0.49906644 0.57779710 -0.64581979
vn 0.89333481 -0.33472764 0.29985049
vn 0.41965763 -0.33472769 0.84370898
vn -0.29985049 -0.33472764 0.89333481
vn -0.84370898 -0.33472769 0.41965763
vn -0.89333481 -0.33472764 -0.29985049
vn -0.41965763 -0.33472769 -0.84370898
vn 0.29985049 -0.33472764 -0.89333481
vn 0.84370898 -0.33472769 -0.41965763
g cylinder1_mtrl/chrome
usemtl mtrl/chrome
f 1/5/1 5/16/5 2/1/2
f 1/5/1 6/24/6 5/16/5
f 1/5/1 8/11/8 6/24/6
f 1/5/1 16/6/16 8/11/8
f 2/1/2 4/8/4 3/4/3
f 2/1/2 5/16/5 4/8/4
f 2/1/2 9/2/9 1/5/1
f 2/1/2 10/3/10 9/2/9
f 3/4/3 10/3/10 2/1/2
f 3/4/3 11/7/11 10/3/10
f 4/8/4 11/7/11 3/4/3
f 4/8/4 12/15/12 11/7/11
f 5/16/5 12/15/12 4/8/4
f 5/16/5 13/22/13 12/15/12
f 6/24/6 8/11/8 7/19/7
f 6/24/6 13/22/13 5/16/5
f 6/24/6 14/21/14 13/22/13
f 7/19/7 14/21/14 6/24/6
f 7/19/7 15/14/15 14/21/14
f 8/11/8 15/14/15 7/19/7
f 8/11/8 16/6/16 15/14/15
f 9/2/9 16/6/16 1/5/1
g cylinder1_mtrl/invisible
usemtl mtrl/invisible
f 10/23/10 11/20/11 12/17/12 13/12/13 14/9/14 15/10/15 16/13/16 9/18/9
