# Exported from Wings 3D 0.98.32a
mtllib platform.mtl
o cube1
#56 vertices, 108 faces
v -1.00000000 -0.25000000 1.00000000
v -1.00000000 0.0000000e+0 1.00000000
v 1.00000000 0.0000000e+0 1.00000000
v 1.00000000 -0.25000000 1.00000000
v -1.00000000 -0.25000000 -1.00000000
v -1.00000000 0.0000000e+0 -1.00000000
v 1.00000000 0.0000000e+0 -1.00000000
v 1.00000000 -0.25000000 -1.00000000
v -1.00000000 -0.22266300 1.00000000
v -1.00000000 -2.7337400e-2 1.00000000
v 1.00000000 -2.7337400e-2 1.00000000
v 1.00000000 -0.22266300 1.00000000
v -1.00000000 -0.22266300 -1.00000000
v -1.00000000 -2.7337400e-2 -1.00000000
v 1.00000000 -2.7337400e-2 -1.00000000
v 1.00000000 -0.22266300 -1.00000000
v -0.80090800 0.0000000e+0 -0.80090800
v -0.80090800 0.0000000e+0 0.80090800
v 0.80090800 0.0000000e+0 0.80090800
v 0.80090800 0.0000000e+0 -0.80090800
v 0.98200000 -0.10737900 -0.95664100
v 0.98618800 -7.4876300e-2 0.96673000
v 0.98200000 -0.14262100 0.95664100
v 0.98618800 -0.17512400 -0.96673000
v 0.95664100 -0.14262100 -0.98200000
v -0.96673000 -0.17512400 -0.98618800
v -0.95664100 -0.10737900 -0.98200000
v 0.96673000 -7.4876300e-2 -0.98618800
v 0.95664100 -0.10737900 0.98200000
v -0.96673000 -7.4876300e-2 0.98618800
v -0.95664100 -0.14262100 0.98200000
v 0.96673000 -0.17512400 0.98618800
v -0.98200000 -0.14262100 -0.95664100
v -0.98618800 -0.17512400 0.96673000
v -0.98200000 -0.10737900 0.95664100
v -0.98618800 -7.4876300e-2 -0.96673000
v 0.0000000e+0 -0.25000000 1.00000000
v -1.00000000 -0.25000000 0.0000000e+0
v 0.0000000e+0 0.0000000e+0 1.00000000
v -1.00000000 0.0000000e+0 0.0000000e+0
v 1.00000000 0.0000000e+0 0.0000000e+0
v 1.00000000 -0.25000000 0.0000000e+0
v 0.0000000e+0 -0.25000000 -1.00000000
v 0.0000000e+0 0.0000000e+0 -1.00000000
v 1.00000000 -0.22266300 0.0000000e+0
v 0.0000000e+0 -2.7337400e-2 -1.00000000
v -1.00000000 -0.22266300 0.0000000e+0
v -1.00000000 -2.7337400e-2 0.0000000e+0
v 1.00000000 -2.7337400e-2 0.0000000e+0
v 0.0000000e+0 -2.7337400e-2 1.00000000
v 0.0000000e+0 -0.22266300 -1.00000000
v 0.0000000e+0 -0.22266300 1.00000000
v 0.0000000e+0 0.0000000e+0 -0.80090800
v 0.0000000e+0 0.0000000e+0 0.80090800
v -0.80090800 0.0000000e+0 0.0000000e+0
v 0.80090800 0.0000000e+0 0.0000000e+0
vt 0.0000000e+0 0.0000000e+0
vt 0.0000000e+0 5.5511151e-17
vt 0.0000000e+0 1.6653345e-16
vt 0.0000000e+0 4.0990184e-2
vt 0.0000000e+0 0.50000000
vt 0.0000000e+0 1.00000000
vt 5.5511151e-17 1.00000000
vt 1.3213760e-9 0.50000000
vt 2.6427520e-9 1.00000000
vt 1.2452091e-4 4.0985080e-2
vt 1.2452455e-4 4.0995288e-2
vt 9.8089756e-3 0.98051930
vt 1.1877272e-2 1.1877271e-2
vt 1.1877273e-2 0.50000000
vt 1.1877275e-2 0.98812273
vt 1.3847489e-2 2.6401807e-2
vt 1.5819955e-2 2.5373077e-2
vt 1.5951603e-2 0.97154841
vt 1.9480696e-2 9.8089726e-3
vt 2.5373081e-2 0.98418004
vt 2.6401811e-2 0.98615251
vt 2.8451584e-2 1.5951600e-2
vt 9.9546000e-2 9.9546000e-2
vt 9.9546000e-2 0.50000000
vt 9.9546000e-2 0.90045400
vt 0.16640734 5.4655479e-2
vt 0.16640735 2.7325088e-2
vt 0.16674968 4.7825384e-2
vt 0.16674968 4.7825384e-2
vt 0.16674968 3.4155084e-2
vt 0.16674968 3.4155084e-2
vt 0.16696749 4.0990184e-2
vt 0.16696749 4.0990184e-2
vt 0.49962656 7.0595772e-2
vt 0.49962658 1.1385028e-2
vt 0.49999999 6.1485575e-2
vt 0.50000000 4.9960036e-16
vt 0.50000000 2.0495092e-2
vt 0.50000000 0.0000000e+0
vt 0.50000000 0.0000000e+0
vt 0.50000000 9.9546000e-2
vt 0.50000000 0.90045400
vt 0.50000000 1.00000000
vt 0.50000000 1.1877271e-2
vt 0.50000000 1.00000000
vt 0.50000000 0.98812273
vt 0.50037342 2.9605156e-2
vt 0.50037342 5.2375378e-2
vt 0.83303249 8.1980966e-2
vt 0.83303251 0.0000000e+0
vt 0.83325030 7.5145766e-2
vt 0.83325030 7.5145766e-2
vt 0.83325032 6.8351001e-3
vt 0.83325032 6.8351001e-3
vt 0.83359264 6.8315671e-2
vt 0.83359265 1.3665096e-2
vt 0.90045400 9.9546000e-2
vt 0.90045400 0.50000000
vt 0.90045400 0.90045400
vt 0.97154842 0.98404840
vt 0.97359819 1.3847488e-2
vt 0.97462692 1.5819954e-2
vt 0.98051930 0.99019103
vt 0.98404840 2.8451583e-2
vt 0.98418005 0.97462692
vt 0.98615251 0.97359819
vt 0.98812273 1.1877271e-2
vt 0.98812273 0.50000000
vt 0.98812273 0.98812273
vt 0.99019103 1.9480695e-2
vt 0.99987545 8.1975862e-2
vt 0.99987548 5.1041350e-6
vt 0.99999998 8.1980966e-2
vt 1.00000000 1.6653345e-16
vt 1.00000000 0.50000000
vt 1.00000000 0.0000000e+0
vt 1.00000000 4.1633363e-17
vt 1.00000000 0.50000000
vt 1.00000000 0.50000000
vt 1.00000000 1.00000000
vt 1.00000000 1.00000000
vn -0.57735027 -0.57735027 0.57735027
vn -0.57735027 0.57735027 0.57735027
vn 0.57735027 0.57735027 0.57735027
vn 0.57735027 -0.57735027 0.57735027
vn -0.57735027 -0.57735027 -0.57735027
vn -0.57735027 0.57735027 -0.57735027
vn 0.57735027 0.57735027 -0.57735027
vn 0.57735027 -0.57735027 -0.57735027
vn -0.72622021 0.19555592 0.65906152
vn -0.63397887 -0.26717643 0.72573242
vn 0.72573242 -0.26717643 0.63397887
vn 0.65906152 0.19555592 0.72622021
vn -0.65906152 0.19555592 -0.72622021
vn -0.72573242 -0.26717643 -0.63397887
vn 0.63397887 -0.26717643 -0.72573242
vn 0.72622021 0.19555592 -0.65906152
vn 0.0000000e+0 1.00000000 0.0000000e+0
vn 0.0000000e+0 1.00000000 0.0000000e+0
vn 0.0000000e+0 1.00000000 0.0000000e+0
vn 0.0000000e+0 1.00000000 0.0000000e+0
vn 0.90238900 -0.12525252 -0.41231772
vn 0.90293537 -0.27367405 0.33137626
vn 0.90238878 0.12525171 0.41231845
vn 0.90293593 0.27367307 -0.33137555
vn 0.41231845 0.12525171 -0.90238878
vn -0.33137555 0.27367307 -0.90293593
vn -0.41231772 -0.12525252 -0.90238900
vn 0.33137626 -0.27367405 -0.90293537
vn 0.41231772 -0.12525252 0.90238900
vn -0.33137626 -0.27367405 0.90293537
vn -0.41231845 0.12525171 0.90238878
vn 0.33137555 0.27367307 0.90293593
vn -0.90238878 0.12525171 -0.41231845
vn -0.90293593 0.27367307 0.33137555
vn -0.90238900 -0.12525252 0.41231772
vn -0.90293537 -0.27367405 -0.33137626
vn 0.0000000e+0 -0.70710678 0.70710678
vn -0.80000000 -0.60000000 0.0000000e+0
vn 0.0000000e+0 0.89442719 0.44721360
vn -0.44721360 0.89442719 0.0000000e+0
vn 0.44721360 0.89442719 0.0000000e+0
vn 0.80000000 -0.60000000 0.0000000e+0
vn 0.0000000e+0 -0.70710678 -0.70710678
vn 0.0000000e+0 0.89442719 -0.44721360
vn 0.99673261 8.0755987e-2 -1.6017935e-3
vn 1.2448046e-3 -6.2758291e-2 -0.99802798
vn -0.99673261 8.0755987e-2 1.6017935e-3
vn -0.99802798 -6.2758291e-2 -1.2448046e-3
vn 0.99802798 -6.2758291e-2 1.2448046e-3
vn -1.2448046e-3 -6.2758291e-2 0.99802798
vn -1.6017935e-3 8.0755987e-2 -0.99673261
vn 1.6017935e-3 8.0755987e-2 0.99673261
vn 0.0000000e+0 1.00000000 0.0000000e+0
vn 0.0000000e+0 1.00000000 0.0000000e+0
vn 0.0000000e+0 1.00000000 0.0000000e+0
vn 0.0000000e+0 1.00000000 0.0000000e+0
g cube1_mtrl/turf-shiny-bright
usemtl mtrl/turf-shiny-bright
f 2/1/2 39/40/39 18/23/18
f 3/76/3 41/79/41 19/57/19
f 6/6/6 40/5/40 17/25/17
f 7/81/7 44/43/44 20/59/20
f 17/25/17 44/43/44 6/6/6
f 17/25/17 53/42/53 44/43/44
f 18/23/18 40/5/40 2/1/2
f 18/23/18 55/24/55 40/5/40
f 19/57/19 39/40/39 3/76/3
f 19/57/19 54/41/54 39/40/39
f 20/59/20 41/79/41 7/81/7
f 20/59/20 56/58/56 41/79/41
f 39/40/39 54/41/54 18/23/18
f 40/5/40 55/24/55 17/25/17
f 41/79/41 56/58/56 19/57/19
f 44/43/44 53/42/53 20/59/20
g cube1_mtrl/turf-shiny
usemtl mtrl/turf-shiny
f 17/1/17 55/39/55 53/5/53
f 19/81/19 56/43/56 54/78/54
f 53/5/53 55/39/55 54/78/54
f 53/5/53 56/43/56 20/6/20
f 54/78/54 55/39/55 18/76/18
f 54/78/54 56/43/56 53/5/53
g cube1_mtrl/chrome
usemtl mtrl/chrome
f 1/2/1 38/39/38 37/5/37
f 5/76/5 43/78/43 38/39/38
f 9/13/9 52/44/52 31/22/31
f 10/3/10 35/16/35 30/19/30
f 10/3/10 48/8/48 35/16/35
f 11/74/11 29/61/29 22/70/22
f 11/74/11 50/37/50 29/61/29
f 12/67/12 45/68/45 23/64/23
f 13/15/13 33/18/33 26/20/26
f 13/15/13 47/14/47 33/18/33
f 14/9/14 46/45/46 27/21/27
f 15/80/15 49/75/49 21/66/21
f 16/69/16 25/60/25 24/65/24
f 16/69/16 51/46/51 25/60/25
f 21/66/21 28/63/28 15/80/15
f 21/66/21 45/68/45 24/65/24
f 21/66/21 49/75/49 45/68/45
f 22/70/22 29/61/29 23/64/23
f 22/70/22 49/75/49 11/74/11
f 23/64/23 32/62/32 12/67/12
f 23/64/23 49/75/49 22/70/22
f 24/65/24 25/60/25 21/66/21
f 24/65/24 45/68/45 16/69/16
f 25/60/25 28/63/28 21/66/21
f 25/60/25 46/45/46 28/63/28
f 25/60/25 51/46/51 46/45/46
f 26/20/26 33/18/33 27/21/27
f 26/20/26 51/46/51 13/15/13
f 27/21/27 36/12/36 14/9/14
f 27/21/27 51/46/51 26/20/26
f 28/63/28 46/45/46 15/80/15
f 29/61/29 32/62/32 23/64/23
f 29/61/29 52/44/52 32/62/32
f 30/19/30 35/16/35 31/22/31
f 30/19/30 50/37/50 10/3/10
f 31/22/31 34/17/34 9/13/9
f 31/22/31 35/16/35 34/17/34
f 31/22/31 50/37/50 30/19/30
f 31/22/31 52/44/52 50/37/50
f 32/62/32 52/44/52 12/67/12
f 33/18/33 36/12/36 27/21/27
f 33/18/33 48/8/48 36/12/36
f 34/17/34 47/14/47 9/13/9
f 35/16/35 47/14/47 34/17/34
f 35/16/35 48/8/48 47/14/47
f 36/12/36 48/8/48 14/9/14
f 37/5/37 42/43/42 4/7/4
f 37/5/37 43/78/43 42/43/42
f 38/39/38 43/78/43 37/5/37
f 42/43/42 43/78/43 8/81/8
f 45/68/45 49/75/49 23/64/23
f 46/45/46 51/46/51 27/21/27
f 47/14/47 48/8/48 33/18/33
f 50/37/50 52/44/52 29/61/29
g cube1_mtrl/rail
usemtl mtrl/rail
f 1/10/1 37/31/37 9/4/9
f 2/71/2 48/55/48 10/73/10
f 2/71/2 50/49/50 39/52/39
f 3/36/3 49/26/49 41/29/41
f 3/36/3 50/49/50 11/34/11
f 4/38/4 42/53/42 12/47/12
f 5/38/5 38/30/38 13/35/13
f 6/36/6 46/33/46 14/48/14
f 6/36/6 48/55/48 40/51/40
f 7/11/7 46/33/46 44/28/44
f 7/11/7 49/26/49 15/4/15
f 8/72/8 43/54/43 16/77/16
f 9/4/9 38/30/38 1/10/1
f 9/4/9 47/27/47 38/30/38
f 10/73/10 50/49/50 2/71/2
f 11/34/11 49/26/49 3/36/3
f 12/47/12 37/31/37 4/38/4
f 12/47/12 52/32/52 37/31/37
f 13/35/13 43/54/43 5/38/5
f 13/35/13 51/50/51 43/54/43
f 14/48/14 48/55/48 6/36/6
f 15/4/15 46/33/46 7/11/7
f 16/77/16 42/53/42 8/72/8
f 16/77/16 45/56/45 42/53/42
f 37/31/37 52/32/52 9/4/9
f 38/30/38 47/27/47 13/35/13
f 39/52/39 50/49/50 3/36/3
f 40/51/40 48/55/48 2/71/2
f 41/29/41 49/26/49 7/11/7
f 42/53/42 45/56/45 12/47/12
f 43/54/43 51/50/51 16/77/16
f 44/28/44 46/33/46 6/36/6
