# Exported from Wings 3D 0.98.32a
mtllib xrail2.mtl
o cylinder1
#16 vertices, 18 faces
v 1.00000000 0.23086600 -4.6191300e-2
v 1.00000000 0.20380600 -1.9131500e-2
v 1.00000000 0.20380600 1.9136800e-2
v 1.00000000 0.23086600 4.6196600e-2
v 0.99999900 0.26913400 4.6196600e-2
v 0.99999900 0.29619400 1.9136800e-2
v 0.99999900 0.29619400 -1.9131500e-2
v 1.00000000 0.26913400 -4.6191300e-2
v -1.00000000 0.25000000 -5.0002700e-2
v -0.99999900 0.21464500 -3.5358000e-2
v -0.99999900 0.20000000 -2.6535900e-6
v -0.99999900 0.21464500 3.5352700e-2
v -1.00000000 0.25000000 4.9997300e-2
v -1.00000000 0.28535500 3.5352700e-2
v -1.00000000 0.30000000 -2.6535900e-6
v -1.00000000 0.28535500 -3.5358000e-2
vt 0.0000000e+0 0.17571600
vt 0.0000000e+0 0.66733424
vt 3.7329300e-3 0.19448300
vt 1.0292717e-2 0.27641905
vt 1.0630300e-2 0.15980700
vt 1.9642400e-2 0.20511300
vt 2.9396800e-2 0.15607400
vt 3.8408900e-2 0.20138000
vt 4.5306300e-2 0.16670400
vt 4.9039200e-2 0.17571600
vt 4.9039200e-2 0.18547100
vt 5.2772100e-2 0.19448300
vt 5.9669500e-2 0.15980700
vt 6.8681600e-2 0.20511300
vt 7.8436000e-2 0.15607400
vt 8.7448100e-2 0.20138000
vt 9.4345500e-2 0.16670400
vt 9.8078400e-2 0.18547100
vt 0.27143776 0.95844137
vt 0.29667332 -5.5511151e-17
vt 0.36375397 0.48128795
vt 0.38375330 0.53268019
vt 0.38643001 0.43101934
vt 0.43491150 0.55529957
vt 0.43870763 0.41112324
vt 0.48747465 0.53569941
vt 0.49016653 0.43346240
vt 0.51045142 0.48515043
vt 0.68073731 0.98000956
vt 0.70654160 -5.5511151e-17
vt 0.98913905 0.70417781
vt 1.00000000 0.29168107
vn 0.33188410 -0.36099069 -0.87151516
vn 0.33188351 -0.87151293 -0.36099661
vn 0.33188144 -0.87151253 0.36099948
vn 0.33187908 -0.36098953 0.87151755
vn 0.33187820 0.36099596 0.87151522
vn 0.33187930 0.87151431 0.36099715
vn 0.33188137 0.87151471 -0.36099427
vn 0.33188322 0.36099711 -0.87151283
vn -0.33187940 -4.0137779e-6 -0.94332182
vn -0.33187840 -0.66702983 -0.66702918
vn -0.33188075 -0.94332135 -2.2463055e-8
vn -0.33188165 -0.66702852 0.66702888
vn -0.33188369 -3.9973589e-6 0.94332031
vn -0.33188342 0.66702407 0.66703245
vn -0.33188326 0.94332047 -2.2463225e-8
vn -0.33188017 0.66702540 -0.66703274
g cylinder1_mtrl/chrome
usemtl mtrl/chrome
f 1/20/1 9/25/9 8/30/8
f 1/20/1 10/23/10 9/25/9
f 2/4/2 10/23/10 1/20/1
f 2/4/2 11/21/11 10/23/10
f 3/2/3 11/21/11 2/4/2
f 3/2/3 12/22/12 11/21/11
f 4/19/4 12/22/12 3/2/3
f 4/19/4 13/24/13 12/22/12
f 5/29/5 13/24/13 4/19/4
f 5/29/5 14/26/14 13/24/13
f 6/31/6 14/26/14 5/29/5
f 6/31/6 15/28/15 14/26/14
f 7/32/7 15/28/15 6/31/6
f 7/32/7 16/27/16 15/28/15
f 8/30/8 16/27/16 7/32/7
f 9/25/9 16/27/16 8/30/8
g cylinder1_mtrl/invisible
usemtl mtrl/invisible
f 1/13/1 8/15/8 7/17/7 6/18/6 5/16/5 4/14/4 3/12/3 2/10/2
f 10/9/10 11/11/11 12/8/12 13/6/13 14/3/14 15/1/15 16/5/16 9/7/9
