# Exported from Wings 3D 0.98.32a
mtllib xrail8.mtl
o cylinder1
#16 vertices, 18 faces
v 4.00000000 0.23086600 -4.6191300e-2
v 4.00000000 0.20380600 -1.9131500e-2
v 4.00000000 0.20380600 1.9136800e-2
v 4.00000000 0.23086600 4.6196600e-2
v 4.00000000 0.26913400 4.6196600e-2
v 4.00000000 0.29619400 1.9136800e-2
v 4.00000000 0.29619400 -1.9131500e-2
v 4.00000000 0.26913400 -4.6191300e-2
v -4.00000000 0.25000000 -5.0002700e-2
v -4.00000000 0.21464500 -3.5358000e-2
v -3.99999000 0.20000000 -2.6535900e-6
v -4.00000000 0.21464500 3.5352700e-2
v -4.00000000 0.25000000 4.9997300e-2
v -4.00000000 0.28535500 3.5352700e-2
v -4.00001000 0.30000000 -2.6535900e-6
v -4.00000000 0.28535500 -3.5358000e-2
vt -5.5511151e-16 0.70417299
vt 8.2053472e-4 0.29167816
vt 0.29124926 0.99701224
vt 0.29323252 0.0000000e+0
vt 0.39163597 0.49867233
vt 0.41088908 0.54537223
vt 0.41107471 0.45204940
vt 0.45756643 0.56480516
vt 0.45782901 0.43280219
vt 0.50433810 0.54557551
vt 0.50452381 0.45221789
vt 0.52379415 0.49893521
vt 0.70511535 0.99865886
vt 0.70710188 0.0000000e+0
vt 0.99917619 0.70698399
vt 1.00000000 0.29284252
vn 0.33146037 -0.36105029 -0.87165171
vn 0.33146035 -0.87165039 -0.36105350
vn 0.33145993 -0.87165054 0.36105354
vn 0.33145934 -0.36104969 0.87165235
vn 0.33145934 0.36104969 0.87165235
vn 0.33145993 0.87165051 0.36105361
vn 0.33146035 0.87165036 -0.36105358
vn 0.33146037 0.36105029 -0.87165171
vn -0.33145978 -3.3130444e-5 -0.94346935
vn -0.33145181 -0.66715046 -0.66712065
vn -0.33145029 -0.94347268 -2.2047582e-8
vn -0.33145269 -0.66714974 0.66712093
vn -0.33146071 -3.3130411e-5 0.94346902
vn -0.33146734 0.66711291 0.66715048
vn -0.33147103 0.94346540 -2.1967829e-8
vn -0.33146645 0.66711364 -0.66715019
g cylinder1_mtrl/chrome
usemtl mtrl/chrome
f 1/4/1 9/9/9 8/14/8
f 1/4/1 10/7/10 9/9/9
f 2/2/2 10/7/10 1/4/1
f 2/2/2 11/5/11 10/7/10
f 3/1/3 11/5/11 2/2/2
f 3/1/3 12/6/12 11/5/11
f 4/3/4 12/6/12 3/1/3
f 4/3/4 13/8/13 12/6/12
f 5/13/5 13/8/13 4/3/4
f 5/13/5 14/10/14 13/8/13
f 6/15/6 14/10/14 5/13/5
f 6/15/6 15/12/15 14/10/14
f 7/16/7 15/12/15 6/15/6
f 7/16/7 16/11/16 15/12/15
f 8/14/8 16/11/16 7/16/7
f 9/9/9 16/11/16 8/14/8
g cylinder1_mtrl/invisible
usemtl mtrl/invisible
f 1//1 8//8 7//7 6//6 5//5 4//4 3//3 2//2
f 10//10 11//11 12//12 13//13 14//14 15//15 16//16 9//9
