# Exported from Wings 3D 0.98.32a
mtllib zrail8.mtl
o cylinder1
#16 vertices, 18 faces
v 5.0000000e-2 0.25000000 4.00000000
v 3.5355300e-2 0.21464500 4.00000000
v -3.9786200e-17 0.20000000 4.00001000
v -3.5355300e-2 0.21464500 4.00000000
v -5.0000000e-2 0.25000000 4.00000000
v -3.5355300e-2 0.28535500 4.00000000
v -5.2032200e-17 0.30000000 3.99999000
v 3.5355300e-2 0.28535500 4.00000000
v 5.0000000e-2 0.25000000 -4.00000000
v 3.5355300e-2 0.21464500 -4.00000000
v -3.9786200e-17 0.20000000 -3.99999000
v -3.5355300e-2 0.21464500 -4.00000000
v -5.0000000e-2 0.25000000 -4.00000000
v -3.5355300e-2 0.28535500 -4.00000000
v -5.2032200e-17 0.30000000 -4.00001000
v 3.5355300e-2 0.28535500 -4.00000000
vt 0.0000000e+0 0.17571600
vt 0.0000000e+0 0.70697650
vt 8.5515876e-5 0.29270715
vt 3.7329300e-3 0.19448300
vt 1.0630300e-2 0.15980700
vt 1.9642400e-2 0.20511300
vt 2.9396800e-2 0.15607400
vt 3.8408900e-2 0.20138000
vt 4.5306300e-2 0.16670400
vt 4.9039200e-2 0.18547100
vt 5.2772100e-2 0.16670400
vt 5.9669600e-2 0.20138000
vt 6.8681500e-2 0.15607400
vt 7.8436100e-2 0.20511300
vt 8.7448000e-2 0.15980700
vt 9.4345600e-2 0.19448300
vt 9.8078400e-2 0.17571600
vt 0.29334577 0.0000000e+0
vt 0.29347876 0.99936206
vt 0.53406195 0.42247867
vt 0.53408578 0.48523023
vt 0.57844776 0.37806809
vt 0.57851458 0.52954546
vt 0.64122597 0.37800621
vt 0.64130306 0.52945878
vt 0.68562979 0.42231127
vt 0.68566405 0.48503796
vt 0.70723945 0.0000000e+0
vt 0.70781906 0.99828334
vt 0.99963188 0.29194331
vt 1.00000000 0.70513102
vn 0.96528354 2.6120542e-5 0.26120431
vn 0.56854528 -0.75065342 0.33656458
vn -0.12880176 -0.93280861 0.33656826
vn -0.75068489 -0.56850495 0.33656251
vn -0.87946487 4.7596583e-5 0.47596381
vn -0.75065616 0.56855050 0.33654963
vn -0.12879368 0.93281736 0.33654713
vn 0.56851655 0.75068280 0.33654757
vn 0.87946487 -4.7596583e-5 -0.47596381
vn 0.75065616 -0.56855050 -0.33654963
vn 0.12879368 -0.93281736 -0.33654713
vn -0.56851655 -0.75068280 -0.33654757
vn -0.96528354 -2.6120542e-5 -0.26120431
vn -0.56854528 0.75065342 -0.33656458
vn 0.12880176 0.93280861 -0.33656826
vn 0.75068489 0.56850495 -0.33656251
g cylinder1_mtrl/chrome
usemtl mtrl/chrome
f 1/22/1 10/28/10 9/18/9
f 1/22/1 16/3/16 8/20/8
f 2/24/2 10/28/10 1/22/1
f 2/24/2 11/30/11 10/28/10
f 3/26/3 11/30/11 2/24/2
f 3/26/3 12/31/12 11/30/11
f 4/27/4 12/31/12 3/26/3
f 4/27/4 13/29/13 12/31/12
f 5/25/5 13/29/13 4/27/4
f 6/23/6 13/29/13 5/25/5
f 6/23/6 14/19/14 13/29/13
f 7/21/7 14/19/14 6/23/6
f 7/21/7 15/2/15 14/19/14
f 8/20/8 15/2/15 7/21/7
f 8/20/8 16/3/16 15/2/15
f 9/18/9 16/3/16 1/22/1
g cylinder1_mtrl/invisible
usemtl mtrl/invisible
f 1/13/1 8/15/8 7/17/7 6/16/6 5/14/5 4/12/4 3/10/3 2/11/2
f 10/9/10 11/10/11 12/8/12 13/6/13 14/4/14 15/1/15 16/5/16 9/7/9
